# xmcd
#
# Track frame offsets: 
#        150
#        18783
#        36404
#        57092
#        76702
#        111442
#        123953
#        129879
#        148191
#        170395
#        187812
#        206230
#
# Disc length: 3134 seconds
#
# Revision: 0
# Processed by: cddbd v1.5.2PL0 Copyright (c) Steve Scherf et al.
# Submitted via: ExactAudioCopy v1.1
#
DISCID=9c0c3c0c
DTITLE=Orgone - Beyond The Sun
DYEAR=2015
DGENRE=Funk, Soul
TTITLE0=Don't Push Your Luck
TTITLE1=Losing You
TTITLE2=No Pain
TTITLE3=Take You Higher
TTITLE4=Picture On My Wall
TTITLE5=When Someone's Love Is Real
TTITLE6=Interlude
TTITLE7=Meat Machine
TTITLE8=People Beyond The Sun
TTITLE9=Down Down Down
TTITLE10=I'm A Woman (I'm A Backbone)
TTITLE11=Sabi
EXTD=
EXTT0=
EXTT1=
EXTT2=
EXTT3=
EXTT4=
EXTT5=
EXTT6=
EXTT7=
EXTT8=
EXTT9=
EXTT10=
EXTT11=
PLAYORDER=
